<?xml version="1.0" standalone="no"?>
<!DOCTYPE svg PUBLIC "-//W3C//DTD SVG 20010904//EN"
 "http://www.w3.org/TR/2001/REC-SVG-20010904/DTD/svg10.dtd">
<svg version="1.0" xmlns="http://www.w3.org/2000/svg"
 width="2048.000000pt" height="2048.000000pt" viewBox="0 0 2048.000000 2048.000000"
 preserveAspectRatio="xMidYMid meet">
<metadata>
Created by potrace 1.16, written by Peter Selinger 2001-2019
</metadata>
<g transform="translate(0.000000,2048.000000) scale(0.100000,-0.100000)"
fill="#000000" stroke="none">
<path d="M7946 12042 c-5 -9 -716 -2002 -716 -2009 0 -2 42 -3 93 -3 l93 0 58
170 59 170 425 -2 424 -3 60 -167 60 -168 94 0 93 0 -54 153 c-152 433 -636
1788 -656 1840 -12 27 -23 34 -33 19z m67 -602 c25 -74 107 -310 181 -525 75
-214 136 -391 136 -392 0 -2 -166 -3 -370 -3 -203 0 -370 3 -370 7 0 20 366
1061 371 1055 3 -4 27 -68 52 -142z"/>
<path d="M12496 12042 c-5 -9 -716 -2002 -716 -2008 0 -2 42 -4 93 -4 l93 0
58 170 59 170 425 -2 424 -3 60 -167 60 -168 94 0 93 0 -54 153 c-152 433
-636 1788 -656 1840 -11 27 -23 34 -33 19z m67 -602 c25 -74 107 -310 181
-525 75 -214 136 -391 136 -392 0 -2 -166 -3 -370 -3 -203 0 -370 3 -370 7 0
20 366 1061 371 1055 3 -4 27 -68 52 -142z"/>
<path d="M8920 11036 l0 -1006 95 0 95 0 0 319 0 318 168 6 c189 6 287 25 405
81 152 70 250 167 318 311 46 98 61 170 61 289 1 328 -187 563 -527 657 -71
20 -111 23 -347 27 l-268 4 0 -1006z m559 820 c98 -25 185 -71 254 -136 99
-92 147 -211 147 -362 0 -254 -127 -423 -380 -503 -39 -13 -102 -19 -222 -22
l-168 -5 0 464 c0 256 -3 493 -7 528 l-6 63 159 -6 c93 -3 185 -12 223 -21z"/>
<path d="M10350 11035 l0 -1005 95 0 95 0 0 283 0 282 145 193 c80 105 149
192 153 192 4 0 144 -213 312 -473 l306 -472 107 -3 106 -3 -359 545 c-198
300 -360 550 -360 555 0 7 589 806 663 899 7 9 -13 12 -94 12 l-104 0 -438
-586 -437 -585 0 585 0 586 -95 0 -95 0 0 -1005z"/>
<path d="M7336 9565 c-85 -30 -135 -109 -136 -213 0 -100 35 -164 113 -204 79
-40 190 -33 252 17 29 22 29 23 12 49 -21 31 -27 32 -69 6 -46 -28 -115 -27
-159 3 -90 60 -92 203 -2 258 46 29 120 29 167 0 l34 -21 21 26 c17 22 19 30
9 42 -39 47 -162 66 -242 37z"/>
<path d="M11505 9561 c-83 -38 -125 -111 -125 -213 1 -141 89 -228 232 -228
54 0 147 32 172 58 15 17 14 20 -8 41 l-25 23 -44 -21 c-57 -28 -140 -28 -185
-1 -27 17 -62 70 -62 95 0 3 83 5 185 5 l185 0 0 31 c0 98 -65 196 -145 218
-59 16 -135 13 -180 -8z m158 -65 c37 -16 72 -51 82 -83 l6 -23 -145 0 -146 0
11 27 c29 78 114 112 192 79z"/>
<path d="M12456 9566 c-92 -34 -141 -119 -134 -235 3 -58 9 -77 34 -113 98
-140 323 -126 398 24 52 105 21 238 -71 302 -35 24 -54 30 -115 33 -47 2 -87
-2 -112 -11z m173 -85 c66 -46 86 -119 53 -194 -66 -148 -282 -97 -282 67 0
44 31 106 63 126 51 31 122 32 166 1z"/>
<path d="M7650 9535 l0 -35 75 0 75 0 0 -185 0 -185 45 0 45 0 0 185 0 185 75
0 75 0 0 35 0 35 -195 0 -195 0 0 -35z"/>
<path d="M8179 9352 l88 -218 -38 -88 c-58 -133 -58 -126 -7 -126 l44 0 137
318 c75 174 137 321 137 325 0 4 -19 7 -43 7 l-42 0 -70 -170 c-38 -93 -70
-168 -72 -166 -2 1 -32 77 -66 167 l-64 164 -46 3 -46 3 88 -219z"/>
<path d="M8642 9435 c-14 -163 -34 -222 -79 -227 l-28 -3 0 -95 0 -95 38 -3
37 -3 0 60 0 61 175 0 175 0 0 -60 0 -60 40 0 40 0 0 100 0 100 -35 0 -35 0 0
180 0 180 -158 0 -158 0 -12 -135z m248 -80 l0 -145 -104 0 -105 0 14 33 c11
26 35 197 35 248 0 5 36 9 80 9 l80 0 0 -145z"/>
<path d="M9110 9350 l0 -220 38 0 c36 0 42 6 162 150 l125 150 3 -150 3 -150
39 0 40 0 0 220 0 220 -34 0 c-31 0 -43 -11 -157 -145 l-124 -145 -3 145 -3
145 -44 0 -45 0 0 -220z"/>
<path d="M9711 9552 c-49 -24 -74 -63 -75 -114 -1 -60 20 -104 63 -130 20 -12
38 -23 40 -24 2 -2 -18 -29 -45 -61 -86 -101 -83 -93 -27 -93 l50 0 59 74 c56
72 61 75 102 75 l42 1 0 -75 0 -75 45 0 45 0 0 220 0 220 -132 0 c-107 0 -140
-3 -167 -18z m217 -124 l-3 -73 -60 -3 c-114 -6 -167 30 -143 99 13 37 41 48
131 48 l78 1 -3 -72z"/>
<path d="M10360 9350 l0 -220 200 0 200 0 0 -60 0 -60 40 0 40 0 0 100 0 100
-35 0 -35 0 0 180 0 180 -40 0 -40 0 0 -180 0 -180 -120 0 -120 0 0 180 0 180
-45 0 -45 0 0 -220z"/>
<path d="M10920 9349 l0 -221 158 4 c170 3 196 11 220 64 24 50 5 133 -33 147
-12 5 -11 12 10 43 29 42 32 82 10 124 -27 52 -58 60 -220 60 l-145 0 0 -221z
m285 127 c18 -27 7 -69 -20 -80 -9 -3 -55 -6 -101 -6 l-84 0 0 55 0 55 95 0
c88 0 96 -2 110 -24z m3 -172 c14 -10 22 -26 22 -44 0 -47 -30 -60 -137 -60
l-93 0 0 60 0 60 93 0 c68 0 99 -4 115 -16z"/>
<path d="M11880 9535 l0 -35 75 0 75 0 0 -185 0 -185 45 0 45 0 0 185 0 185
75 0 75 0 0 35 0 35 -195 0 -195 0 0 -35z"/>
<path d="M12870 9349 l0 -221 158 4 c170 3 196 11 220 64 24 50 5 133 -33 147
-12 5 -11 12 10 43 29 42 32 82 10 124 -27 52 -58 60 -220 60 l-145 0 0 -221z
m285 127 c18 -27 7 -69 -20 -80 -9 -3 -55 -6 -101 -6 l-84 0 0 55 0 55 95 0
c88 0 96 -2 110 -24z m3 -172 c14 -10 22 -26 22 -44 0 -47 -30 -60 -137 -60
l-93 0 0 60 0 60 93 0 c68 0 99 -4 115 -16z"/>
</g>
</svg>
